<svg width="320" height="376" viewBox="0 0 320 376" fill="none" xmlns="http://www.w3.org/2000/svg">
<path d="M24.3652 23V129.161" stroke="#AD49E1" stroke-width="45" stroke-linecap="round"/>
<path d="M91.353 23H24.3652" stroke="#AD49E1" stroke-width="45" stroke-linecap="round"/>
<path d="M177.365 23L220.365 87" stroke="#2E073F" stroke-width="45" stroke-linecap="round"/>
<path d="M220.605 87.2952L293.845 23" stroke="#2E073F" stroke-width="45" stroke-linecap="round"/>
<path d="M293.846 129.163V23.0015" stroke="#2E073F" stroke-width="45" stroke-linecap="round"/>
<path d="M56.3652 76H29.3652" stroke="#AD49E1" stroke-width="45" stroke-linecap="round"/>
<path d="M129.365 129C145.934 129 159.365 115.569 159.365 99C159.365 82.4315 145.934 69 129.365 69C112.797 69 99.3652 82.4315 99.3652 99C99.3652 115.569 112.797 129 129.365 129Z" stroke="#AD49E1" stroke-width="40"/>
<path d="M139.255 174.648L292.365 235.111" stroke="#7A1CAC" stroke-width="45" stroke-linecap="round"/>
<path d="M24.3652 215.86V178.193" stroke="#2E073F" stroke-width="45" stroke-linecap="round"/>
<path d="M292.366 180.236L292.324 236.379" stroke="#7A1CAC" stroke-width="45" stroke-linecap="round"/>
<path d="M136.102 174L82.3652 220.598" stroke="#AD49E1" stroke-width="45" stroke-linecap="round"/>
<path d="M82.3652 221L211.835 313.433" stroke="#AD49E1" stroke-width="45" stroke-linecap="round"/>
<path d="M293.365 239L220.365 314.162" stroke="#AD49E1" stroke-width="45" stroke-linecap="round"/>
<path d="M84.3655 219L71.8149 310.131" stroke="#2E073F" stroke-width="45" stroke-linecap="round"/>
<path d="M218.365 317L74.3652 313.933" stroke="#2E073F" stroke-width="45" stroke-linecap="round"/>
<path d="M177.814 244L155.365 265.308" stroke="#AD49E1" stroke-width="45" stroke-linecap="round"/>
<path d="M24.3652 265.245L71.5187 313.132" stroke="#2E073F" stroke-width="45" stroke-linecap="round"/>
</svg>
