<svg width="1066" height="175" viewBox="0 0 1066 175" fill="none" xmlns="http://www.w3.org/2000/svg">
    <path d="M23 24.8633L23 151.693" stroke="#E5E5E5" stroke-width="45" stroke-linecap="round"/>
    <path d="M89.9883 24.8633L23.0005 24.8633" stroke="#E5E5E5" stroke-width="45" stroke-linecap="round"/>
    <path d="M50.6875 75.7734H22.9992" stroke="#E5E5E5" stroke-width="45" stroke-linecap="round"/>
    <path d="M718.779 24.8633L718.779 151.693" stroke="#E5E5E5" stroke-width="45" stroke-linecap="round"/>
    <path d="M785.768 24.8633L718.78 24.8633" stroke="#E5E5E5" stroke-width="45" stroke-linecap="round"/>
    <path d="M752.721 90.0664H718.78" stroke="#E5E5E5" stroke-width="45" stroke-linecap="round"/>
    <path d="M785.768 151.695H718.78" stroke="#E5E5E5" stroke-width="45" stroke-linecap="round"/>
    <path d="M89.9883 151.695L89.9883 116.862" stroke="#E5E5E5" stroke-width="45" stroke-linecap="round"/>
    <path d="M146.258 151.695H231.109" stroke="#E5E5E5" stroke-width="45" stroke-linecap="round"/>
    <path d="M146.258 151.695L146.258 24.8652" stroke="#E5E5E5" stroke-width="45" stroke-linecap="round"/>
    <path d="M662.51 24.8633L577.659 24.8633" stroke="#E5E5E5" stroke-width="45" stroke-linecap="round"/>
    <path d="M662.51 24.8633L662.51 151.693" stroke="#E5E5E5" stroke-width="45" stroke-linecap="round"/>
    <path d="M842.93 24.8633L842.93 90.0647" stroke="#E5E5E5" stroke-width="45" stroke-linecap="round"/>
    <path d="M896.52 36.4727L842.929 90.0628" stroke="#E5E5E5" stroke-width="45" stroke-linecap="round"/>
    <path d="M902.771 149.906L842.929 90.0639" stroke="#E5E5E5" stroke-width="45" stroke-linecap="round"/>
    <path d="M1043 148.117L981.371 24.8597" stroke="#E5E5E5" stroke-width="45" stroke-linecap="round"/>
    <path d="M948.324 90.0625L981.372 23.0748" stroke="#E5E5E5" stroke-width="45" stroke-linecap="round"/>
    <path d="M349.008 151.695L349.008 24.8652" stroke="#E5E5E5" stroke-width="45" stroke-linecap="round"/>
    <path d="M275.768 101.676L349.008 24.8632" stroke="#E5E5E5" stroke-width="45" stroke-linecap="round"/>
    <path d="M202.527 24.8633L275.767 101.676" stroke="#E5E5E5" stroke-width="45" stroke-linecap="round"/>
    <circle cx="471.371" cy="90.0648" r="60.5648" stroke="#E5E5E5" stroke-width="45"/>
</svg>
